# xmcd
#
# Track frame offsets: 
#        150
#        26080
#        50136
#        71957
#        103490
#        126877
#        151448
#        177220
#        204774
#        226900
#        252511
#
# Disc length: 3831 seconds
#
# Revision: 0
# Processed by: cddbd v1.4PL0 Copyright (c) Steve Scherf et al.
# Submitted via: ExactAudioCopy v0.95a3
#
DISCID=a10ef50b
DTITLE=Kal David and The Real Deal - Live at Blue Guitar by Request
DYEAR=1900
DGENRE=Blues
TTITLE0=Yonder Wall
TTITLE1=I'll Play the Blues for You
TTITLE2=Hard Luck Story
TTITLE3=Killin' Floor
TTITLE4=Another Blue Monday
TTITLE5=A Good Fool Is Hard To Find
TTITLE6=Cry When I leave
TTITLE7=Shadow Across The Land
TTITLE8=I Who Have Nothing
TTITLE9=Take What I Want
TTITLE10=Red House
EXTD=
EXTT0=
EXTT1=
EXTT2=
EXTT3=
EXTT4=
EXTT5=
EXTT6=
EXTT7=
EXTT8=
EXTT9=
EXTT10=
PLAYORDER=
